<mxfile host="app.diagrams.net" modified="2024-05-15T14:21:29.985Z" agent="Mozilla/5.0 (Windows NT 10.0; Win64; x64; rv:126.0) Gecko/20100101 Firefox/126.0" etag="VOpSR46vYxwprc949vrh" version="23.0.2" type="device">
  <diagram name="PÃ¡gina-1" id="NCAqLGO4Rl5LGN58cfDc">
    <mxGraphModel dx="1658" dy="853" grid="1" gridSize="10" guides="1" tooltips="1" connect="1" arrows="1" fold="1" page="1" pageScale="1" pageWidth="827" pageHeight="1169" math="0" shadow="0">
      <root>
        <mxCell id="0" />
        <mxCell id="1" parent="0" />
        <mxCell id="9f_OqwqyhM2lP5WDerUu-1" value="" style="sketch=0;points=[[0,0,0],[0.25,0,0],[0.5,0,0],[0.75,0,0],[1,0,0],[0,1,0],[0.25,1,0],[0.5,1,0],[0.75,1,0],[1,1,0],[0,0.25,0],[0,0.5,0],[0,0.75,0],[1,0.25,0],[1,0.5,0],[1,0.75,0]];outlineConnect=0;fontColor=#232F3E;fillColor=#ED7100;strokeColor=#ffffff;dashed=0;verticalLabelPosition=bottom;verticalAlign=top;align=center;html=1;fontSize=12;fontStyle=0;aspect=fixed;shape=mxgraph.aws4.resourceIcon;resIcon=mxgraph.aws4.lambda;" parent="1" vertex="1">
          <mxGeometry x="455" y="532" width="78" height="78" as="geometry" />
        </mxCell>
        <mxCell id="9f_OqwqyhM2lP5WDerUu-2" value="" style="sketch=0;points=[[0,0,0],[0.25,0,0],[0.5,0,0],[0.75,0,0],[1,0,0],[0,1,0],[0.25,1,0],[0.5,1,0],[0.75,1,0],[1,1,0],[0,0.25,0],[0,0.5,0],[0,0.75,0],[1,0.25,0],[1,0.5,0],[1,0.75,0]];outlineConnect=0;fontColor=#232F3E;fillColor=#ED7100;strokeColor=#ffffff;dashed=0;verticalLabelPosition=bottom;verticalAlign=top;align=center;html=1;fontSize=12;fontStyle=0;aspect=fixed;shape=mxgraph.aws4.resourceIcon;resIcon=mxgraph.aws4.ecr;" parent="1" vertex="1">
          <mxGeometry x="565" y="414" width="78" height="78" as="geometry" />
        </mxCell>
        <mxCell id="9f_OqwqyhM2lP5WDerUu-6" style="edgeStyle=orthogonalEdgeStyle;rounded=0;orthogonalLoop=1;jettySize=auto;html=1;entryX=1;entryY=0.5;entryDx=0;entryDy=0;entryPerimeter=0;" parent="1" source="9f_OqwqyhM2lP5WDerUu-2" target="9f_OqwqyhM2lP5WDerUu-1" edge="1">
          <mxGeometry relative="1" as="geometry">
            <Array as="points">
              <mxPoint x="605" y="571" />
            </Array>
          </mxGeometry>
        </mxCell>
        <mxCell id="9f_OqwqyhM2lP5WDerUu-15" value="" style="edgeStyle=orthogonalEdgeStyle;rounded=0;orthogonalLoop=1;jettySize=auto;html=1;" parent="1" source="9f_OqwqyhM2lP5WDerUu-7" target="9f_OqwqyhM2lP5WDerUu-14" edge="1">
          <mxGeometry relative="1" as="geometry" />
        </mxCell>
        <mxCell id="9f_OqwqyhM2lP5WDerUu-7" value="" style="sketch=0;points=[[0,0,0],[0.25,0,0],[0.5,0,0],[0.75,0,0],[1,0,0],[0,1,0],[0.25,1,0],[0.5,1,0],[0.75,1,0],[1,1,0],[0,0.25,0],[0,0.5,0],[0,0.75,0],[1,0.25,0],[1,0.5,0],[1,0.75,0]];outlineConnect=0;fontColor=#232F3E;fillColor=#8C4FFF;strokeColor=#ffffff;dashed=0;verticalLabelPosition=bottom;verticalAlign=top;align=center;html=1;fontSize=12;fontStyle=0;aspect=fixed;shape=mxgraph.aws4.resourceIcon;resIcon=mxgraph.aws4.api_gateway;" parent="1" vertex="1">
          <mxGeometry x="144" y="532" width="78" height="78" as="geometry" />
        </mxCell>
        <mxCell id="-hBzvGGfs199GZEfIci5-11" style="edgeStyle=orthogonalEdgeStyle;rounded=0;orthogonalLoop=1;jettySize=auto;html=1;" edge="1" parent="1" source="9f_OqwqyhM2lP5WDerUu-10" target="-hBzvGGfs199GZEfIci5-8">
          <mxGeometry relative="1" as="geometry" />
        </mxCell>
        <mxCell id="9f_OqwqyhM2lP5WDerUu-10" value="" style="sketch=0;points=[[0,0,0],[0.25,0,0],[0.5,0,0],[0.75,0,0],[1,0,0],[0,1,0],[0.25,1,0],[0.5,1,0],[0.75,1,0],[1,1,0],[0,0.25,0],[0,0.5,0],[0,0.75,0],[1,0.25,0],[1,0.5,0],[1,0.75,0]];outlineConnect=0;fontColor=#232F3E;fillColor=#C925D1;strokeColor=#ffffff;dashed=0;verticalLabelPosition=bottom;verticalAlign=top;align=center;html=1;fontSize=12;fontStyle=0;aspect=fixed;shape=mxgraph.aws4.resourceIcon;resIcon=mxgraph.aws4.rds;" parent="1" vertex="1">
          <mxGeometry x="274" y="671" width="78" height="78" as="geometry" />
        </mxCell>
        <mxCell id="9f_OqwqyhM2lP5WDerUu-16" value="" style="edgeStyle=orthogonalEdgeStyle;rounded=0;orthogonalLoop=1;jettySize=auto;html=1;" parent="1" source="9f_OqwqyhM2lP5WDerUu-14" target="9f_OqwqyhM2lP5WDerUu-10" edge="1">
          <mxGeometry relative="1" as="geometry" />
        </mxCell>
        <mxCell id="9f_OqwqyhM2lP5WDerUu-14" value="" style="sketch=0;points=[[0,0,0],[0.25,0,0],[0.5,0,0],[0.75,0,0],[1,0,0],[0,1,0],[0.25,1,0],[0.5,1,0],[0.75,1,0],[1,1,0],[0,0.25,0],[0,0.5,0],[0,0.75,0],[1,0.25,0],[1,0.5,0],[1,0.75,0]];outlineConnect=0;fontColor=#232F3E;fillColor=#ED7100;strokeColor=#ffffff;dashed=0;verticalLabelPosition=bottom;verticalAlign=top;align=center;html=1;fontSize=12;fontStyle=0;aspect=fixed;shape=mxgraph.aws4.resourceIcon;resIcon=mxgraph.aws4.lambda;" parent="1" vertex="1">
          <mxGeometry x="274" y="532" width="78" height="78" as="geometry" />
        </mxCell>
        <mxCell id="9f_OqwqyhM2lP5WDerUu-18" value="" style="endArrow=classic;startArrow=classic;html=1;rounded=0;exitX=1;exitY=0.5;exitDx=0;exitDy=0;exitPerimeter=0;entryX=0;entryY=0.5;entryDx=0;entryDy=0;entryPerimeter=0;" parent="1" source="9f_OqwqyhM2lP5WDerUu-14" target="9f_OqwqyhM2lP5WDerUu-1" edge="1">
          <mxGeometry width="50" height="50" relative="1" as="geometry">
            <mxPoint x="484" y="681" as="sourcePoint" />
            <mxPoint x="534" y="631" as="targetPoint" />
          </mxGeometry>
        </mxCell>
        <mxCell id="-hBzvGGfs199GZEfIci5-3" value="AWS API &lt;br&gt;Gateway" style="text;html=1;align=center;verticalAlign=middle;resizable=0;points=[];autosize=1;strokeColor=none;fillColor=none;fontSize=13;fontStyle=0;fontFamily=Roboto;fontSource=https%3A%2F%2Ffonts.googleapis.com%2Fcss%3Ffamily%3DRoboto;" vertex="1" parent="1">
          <mxGeometry x="148" y="616" width="70" height="40" as="geometry" />
        </mxCell>
        <mxCell id="-hBzvGGfs199GZEfIci5-4" value="ApiFunction&lt;br style=&quot;font-size: 13px;&quot;&gt;AWS Lambda" style="text;html=1;align=center;verticalAlign=middle;resizable=0;points=[];autosize=1;strokeColor=none;fillColor=none;fontFamily=Roboto;fontSource=https%3A%2F%2Ffonts.googleapis.com%2Fcss%3Ffamily%3DRoboto;fontSize=13;" vertex="1" parent="1">
          <mxGeometry x="263" y="492" width="100" height="40" as="geometry" />
        </mxCell>
        <mxCell id="-hBzvGGfs199GZEfIci5-5" value="CodeRunnerFunction&lt;br style=&quot;font-size: 13px;&quot;&gt;AWS Lambda" style="text;html=1;align=center;verticalAlign=middle;resizable=0;points=[];autosize=1;strokeColor=none;fillColor=none;fontFamily=Roboto;fontSource=https%3A%2F%2Ffonts.googleapis.com%2Fcss%3Ffamily%3DRoboto;fontSize=13;" vertex="1" parent="1">
          <mxGeometry x="424" y="616" width="140" height="40" as="geometry" />
        </mxCell>
        <mxCell id="-hBzvGGfs199GZEfIci5-6" value="CodeRunnerRepository&lt;br style=&quot;font-size: 13px;&quot;&gt;AWS ECR" style="text;html=1;align=center;verticalAlign=middle;resizable=0;points=[];autosize=1;strokeColor=none;fillColor=none;fontFamily=Roboto;fontSource=https%3A%2F%2Ffonts.googleapis.com%2Fcss%3Ffamily%3DRoboto;fontSize=13;" vertex="1" parent="1">
          <mxGeometry x="524" y="374" width="160" height="40" as="geometry" />
        </mxCell>
        <mxCell id="-hBzvGGfs199GZEfIci5-7" value="CodeRunnerRdsDbCluster&lt;br style=&quot;font-size: 13px;&quot;&gt;AWS RDS Cluster" style="text;html=1;align=center;verticalAlign=middle;resizable=0;points=[];autosize=1;strokeColor=none;fillColor=none;fontSize=13;fontFamily=Roboto;fontSource=https%3A%2F%2Ffonts.googleapis.com%2Fcss%3Ffamily%3DRoboto;" vertex="1" parent="1">
          <mxGeometry x="228" y="756" width="170" height="40" as="geometry" />
        </mxCell>
        <mxCell id="-hBzvGGfs199GZEfIci5-8" value="" style="sketch=0;outlineConnect=0;fontColor=#232F3E;gradientColor=none;fillColor=#C925D1;strokeColor=none;dashed=0;verticalLabelPosition=bottom;verticalAlign=top;align=center;html=1;fontSize=12;fontStyle=0;aspect=fixed;pointerEvents=1;shape=mxgraph.aws4.rds_instance;" vertex="1" parent="1">
          <mxGeometry x="455" y="671" width="78" height="78" as="geometry" />
        </mxCell>
        <mxCell id="-hBzvGGfs199GZEfIci5-9" value="CodeRunnerRdsDbInstance&lt;br style=&quot;font-size: 13px;&quot;&gt;AWS RDS Instance" style="text;html=1;align=center;verticalAlign=middle;resizable=0;points=[];autosize=1;strokeColor=none;fillColor=none;fontSize=13;fontFamily=Roboto;fontSource=https%3A%2F%2Ffonts.googleapis.com%2Fcss%3Ffamily%3DRoboto;" vertex="1" parent="1">
          <mxGeometry x="404" y="756" width="180" height="40" as="geometry" />
        </mxCell>
      </root>
    </mxGraphModel>
  </diagram>
</mxfile>
